<svg width="200" height="188" viewBox="0 0 200 188" fill="none" xmlns="http://www.w3.org/2000/svg">
<mask id="path-1-outside-1_2_135" maskUnits="userSpaceOnUse" x="12" y="13" width="176" height="161" fill="black">
<rect fill="white" x="12" y="13" width="176" height="161"/>
<path fill-rule="evenodd" clip-rule="evenodd" d="M21.7 14H44V19.565H21.7C20.2585 19.565 19.09 20.6328 19.09 21.95V45.8H13V21.95C13 17.5593 16.8951 14 21.7 14ZM13 141.2V165.05C13 169.441 16.8951 173 21.7 173H44V167.435H21.7C20.2585 167.435 19.09 166.367 19.09 165.05V141.2H13ZM180.91 141.2V165.05C180.91 166.367 179.741 167.435 178.3 167.435H156.2V173H178.3C183.105 173 187 169.441 187 165.05V141.2H180.91ZM187 45.8V21.95C187 17.5593 183.105 14 178.3 14H156.2V19.565H178.3C179.741 19.565 180.91 20.6328 180.91 21.95V45.8H187Z"/>
</mask>
<path fill-rule="evenodd" clip-rule="evenodd" d="M21.7 14H44V19.565H21.7C20.2585 19.565 19.09 20.6328 19.09 21.95V45.8H13V21.95C13 17.5593 16.8951 14 21.7 14ZM13 141.2V165.05C13 169.441 16.8951 173 21.7 173H44V167.435H21.7C20.2585 167.435 19.09 166.367 19.09 165.05V141.2H13ZM180.91 141.2V165.05C180.91 166.367 179.741 167.435 178.3 167.435H156.2V173H178.3C183.105 173 187 169.441 187 165.05V141.2H180.91ZM187 45.8V21.95C187 17.5593 183.105 14 178.3 14H156.2V19.565H178.3C179.741 19.565 180.91 20.6328 180.91 21.95V45.8H187Z" fill="#7FB8E1"/>
<path d="M44 14H45V13H44V14ZM44 19.565V20.565H45V19.565H44ZM19.09 45.8V46.8H20.09V45.8H19.09ZM13 45.8H12V46.8H13V45.8ZM13 141.2V140.2H12V141.2H13ZM44 173V174H45V173H44ZM44 167.435H45V166.435H44V167.435ZM19.09 141.2H20.09V140.2H19.09V141.2ZM180.91 141.2V140.2H179.91V141.2H180.91ZM156.2 167.435V166.435H155.2V167.435H156.2ZM156.2 173H155.2V174H156.2V173ZM187 141.2H188V140.2H187V141.2ZM187 45.8V46.8H188V45.8H187ZM156.2 14V13H155.2V14H156.2ZM156.2 19.565H155.2V20.565H156.2V19.565ZM180.91 45.8H179.91V46.8H180.91V45.8ZM44 13H21.7V15H44V13ZM45 19.565V14H43V19.565H45ZM21.7 20.565H44V18.565H21.7V20.565ZM20.09 21.95C20.09 21.268 20.7241 20.565 21.7 20.565V18.565C19.793 18.565 18.09 19.9976 18.09 21.95H20.09ZM20.09 45.8V21.95H18.09V45.8H20.09ZM13 46.8H19.09V44.8H13V46.8ZM12 21.95V45.8H14V21.95H12ZM21.7 13C16.4296 13 12 16.9241 12 21.95H14C14 18.1946 17.3606 15 21.7 15V13ZM12 141.2V165.05H14V141.2H12ZM12 165.05C12 170.076 16.4296 174 21.7 174V172C17.3606 172 14 168.805 14 165.05H12ZM21.7 174H44V172H21.7V174ZM45 173V167.435H43V173H45ZM44 166.435H21.7V168.435H44V166.435ZM21.7 166.435C20.7241 166.435 20.09 165.732 20.09 165.05H18.09C18.09 167.002 19.793 168.435 21.7 168.435V166.435ZM20.09 165.05V141.2H18.09V165.05H20.09ZM19.09 140.2H13V142.2H19.09V140.2ZM181.91 165.05V141.2H179.91V165.05H181.91ZM178.3 168.435C180.207 168.435 181.91 167.002 181.91 165.05H179.91C179.91 165.732 179.276 166.435 178.3 166.435V168.435ZM156.2 168.435H178.3V166.435H156.2V168.435ZM157.2 173V167.435H155.2V173H157.2ZM178.3 172H156.2V174H178.3V172ZM186 165.05C186 168.805 182.639 172 178.3 172V174C183.57 174 188 170.076 188 165.05H186ZM186 141.2V165.05H188V141.2H186ZM187 140.2H180.91V142.2H187V140.2ZM186 21.95V45.8H188V21.95H186ZM178.3 15C182.639 15 186 18.1946 186 21.95H188C188 16.9241 183.57 13 178.3 13V15ZM156.2 15H178.3V13H156.2V15ZM157.2 19.565V14H155.2V19.565H157.2ZM178.3 18.565H156.2V20.565H178.3V18.565ZM181.91 21.95C181.91 19.9976 180.207 18.565 178.3 18.565V20.565C179.276 20.565 179.91 21.268 179.91 21.95H181.91ZM181.91 45.8V21.95H179.91V45.8H181.91ZM180.91 46.8H187V44.8H180.91V46.8Z" fill="#7FB8E1" mask="url(#path-1-outside-1_2_135)"/>
<path d="M100 23L155.154 43.9419L178 94.5L155.154 145.058L100 166L44.8457 145.058L22 94.5L44.8457 43.9419L100 23Z" fill="white"/>
<rect x="75" y="105" width="20" height="20" fill="#545454"/>
<rect x="115" y="65" width="20" height="20" fill="#9E9E9E"/>
<rect x="55" y="85" width="20" height="20" fill="#CACACA"/>
<rect x="75" y="65" width="20" height="20" fill="#B1B1B1"/>
<rect x="115" y="105" width="20" height="20" fill="#545454"/>
<rect x="95" y="85" width="20" height="20" fill="#545454"/>
</svg>
